<?xml version="1.0" encoding="UTF-8"?>
<!DOCTYPE svg PUBLIC "-//W3C//DTD SVG 1.1//EN" "http://www.w3.org/Graphics/SVG/1.1/DTD/svg11.dtd">
<!-- Creator: CorelDRAW X7 -->
<svg xmlns="http://www.w3.org/2000/svg" xml:space="preserve" width="297mm" height="210mm" version="1.1" style="shape-rendering:geometricPrecision; text-rendering:geometricPrecision; image-rendering:optimizeQuality; fill-rule:evenodd; clip-rule:evenodd"
viewBox="0 0 29700 21000"
 xmlns:xlink="http://www.w3.org/1999/xlink">
 <defs>
  <style type="text/css">
   <![CDATA[
    .fil3 {fill:none}
    .fil2 {fill:#C2002E}
    .fil1 {fill:#DC0031}
    .fil4 {fill:#FEFEFE}
    .fil0 {fill:white}
    .fil6 {fill:#C2002E;fill-rule:nonzero}
    .fil5 {fill:#DC0031;fill-rule:nonzero}
   ]]>
  </style>
      <clipPath id="id0">
       <path d="M3305 470l-2074 731 319 2774 1755 985 1756 -985 319 -2774 -2075 -731z"/>
      </clipPath>
 </defs>
 <g id="Layer_x0020_1">
  <metadata id="CorelCorpID_0Corel-Layer"/>
  <g id="_2207430024000">
   <rect class="fil0" x="95" y="151" width="6421" height="6421"/>
   <g>
    <g>
     <polygon class="fil1" points="3305,470 1231,1201 1550,3975 3305,4960 5061,3975 5380,1201 "/>
     <g style="clip-path:url(#id0)">
      <g>
       <path id="1" class="fil2" d="M2541 2585c-75,-102 -144,-198 -220,-298l-168 -221c-28,-30 -52,-39 -97,-26 -98,29 -228,171 -282,238 -33,41 -90,113 -43,184 59,88 503,461 615,551 76,60 104,108 254,0 31,-21 129,-96 140,-119 19,-42 -51,-110 -89,-160 -38,-51 -74,-100 -110,-149zm1948 -974c-63,11 -714,203 -819,231 -70,18 -142,38 -208,57 -111,32 -139,7 -133,132 1,33 25,208 34,231 16,39 450,217 594,178 147,-39 264,-205 306,-221 -17,97 -215,340 26,380 60,10 112,16 172,24 -43,18 -103,13 -153,19 -46,5 -91,20 -140,29 -224,40 -285,83 -467,206 -69,46 -133,91 -195,142 -190,154 -350,330 -456,561 -21,47 -84,217 -61,267 31,36 123,29 179,35 63,7 123,20 184,26 -17,76 -70,195 -99,270l-200 519c-25,66 -68,208 -99,256 5,-66 34,-167 49,-235 24,-110 138,-628 146,-705 -64,2 -104,18 -176,12 -29,-3 -128,-15 -145,-44 -19,-40 2,-180 12,-229 14,-66 36,-134 62,-191 88,-196 277,-411 444,-553 45,-39 87,-75 142,-111 27,-17 122,-87 147,-91 -37,-2 -131,12 -178,15 -106,8 -236,33 -347,48 -213,28 -189,0 -423,166 -37,26 -207,149 -240,157 -27,-10 -52,-37 -75,-55 -64,-51 -479,-380 -501,-388 -73,119 34,515 77,636l94 282c37,75 123,147 175,201l199 177c64,49 40,47 36,137 -3,57 -7,114 -14,171 -28,219 -33,449 -50,671l1809 0c-6,-48 -12,-96 -17,-146 -8,-82 -11,-164 -21,-245 -19,-158 -36,-316 -51,-474 -4,-42 -5,-84 -9,-126 -4,-37 -24,-74 -3,-107 17,-26 106,-98 135,-130l794 -787c113,-115 97,-63 8,-363 -73,-243 -182,-545 -269,-788 -20,-57 -39,-158 -73,-192 -36,-36 -132,-67 -202,-55zm-817 -105c31,54 91,188 110,207 12,2 575,-138 640,-168 1,-34 -159,-384 -186,-435 -80,-156 -64,-170 -152,-137 -76,28 -164,50 -246,72 -84,24 -153,52 -231,79 -107,38 -118,30 -42,178 37,69 70,139 107,204zm-722 262c38,56 264,403 286,419 -2,-70 -16,-136 -17,-208 -2,-95 24,-99 103,-122 60,-17 113,-37 172,-56 45,-14 144,-34 176,-49 -4,-42 -88,-183 -111,-237 -36,-82 -71,-161 -109,-240 -31,-65 -34,-63 -121,-53 -101,12 -302,103 -379,153 -34,22 -72,50 -102,73 -39,30 -66,43 -33,105 41,76 90,147 135,215zm-642 376c89,141 280,376 395,525 25,33 47,57 74,82 30,29 37,55 104,52 68,-3 479,-70 524,-92 -7,-52 -649,-1116 -699,-1146 -43,-25 -186,46 -224,67 -77,41 -124,79 -181,130 -160,144 -136,155 7,382z"/>
      </g>
     </g>
     <polygon class="fil3" points="3305,470 1231,1201 1550,3975 3305,4960 5061,3975 5380,1201 "/>
     <g>
      <path class="fil4" d="M3867 3153l254 628 482 2 -1279 -2906c-78,37 -303,620 -341,702l-975 2191 487 14 256 -657c179,-4 1029,-37 1116,26z"/>
      <polygon class="fil1" points="3331,1910 3292,1883 2927,2776 3318,2778 3683,2778 "/>
     </g>
    </g>
    <path class="fil5" d="M1895 5582l44 146 138 0 -176 -568 -168 0 -174 568 133 0 41 -146 162 0zm-144 -96l34 -121c9,-32 18,-75 26,-109l2 0c8,34 18,76 29,109l35 121 -126 0z"/>
    <path id="1" class="fil5" d="M2271 5728l0 -171c0,-93 -1,-173 -5,-248l3 -1c28,67 65,140 98,201l122 219 134 0 0 -568 -117 0 0 166c0,85 2,162 10,237l-2 0c-25,-64 -59,-135 -93,-195l-118 -208 -150 0 0 568 118 0z"/>
    <path id="2" class="fil5" d="M3209 5403l-211 0 0 100 87 0 0 119c-10,5 -33,8 -63,8 -105,0 -179,-69 -179,-186 0,-123 81,-184 188,-184 63,0 101,11 133,25l27 -103c-28,-14 -85,-28 -158,-28 -186,0 -324,108 -324,297 -1,83 27,157 80,206 52,51 127,77 230,77 75,0 150,-19 190,-32l0 -299z"/>
    <path id="3" class="fil5" d="M3308 5160l0 317c0,181 85,260 228,260 148,0 237,-83 237,-259l0 -318 -128 0 0 327c0,100 -37,147 -105,147 -66,0 -103,-49 -103,-147l0 -327 -129 0z"/>
    <polygon id="4" class="fil5" points="3884,5728 4239,5728 4239,5620 4013,5620 4013,5160 3884,5160 "/>
    <path id="5" class="fil5" d="M4615 5582l43 146 139 0 -177 -568 -168 0 -174 568 133 0 41 -146 163 0zm-145 -96l34 -121c9,-32 18,-75 26,-109l2 0c8,34 18,76 29,109l35 121 -126 0z"/>
    <path id="6" class="fil5" d="M4872 5728l128 0 0 -224 38 0c53,1 77,21 92,91 17,70 31,117 40,133l131 0c-11,-22 -28,-96 -46,-160 -14,-53 -36,-91 -76,-107l0 -2c49,-18 100,-67 100,-140 0,-52 -18,-92 -52,-119 -40,-32 -99,-44 -184,-44 -68,0 -129,5 -171,11l0 561zm128 -473c9,-2 27,-4 58,-4 59,1 94,27 94,79 0,50 -38,82 -102,82l-50 0 0 -157z"/>
    <path id="7" class="fil6" d="M1819 6247l85 0 0 -135c8,1 18,2 29,2 51,0 94,-13 123,-40 23,-22 35,-53 35,-90 0,-37 -16,-69 -40,-88 -26,-20 -63,-30 -116,-30 -52,0 -89,3 -116,8l0 373zm85 -313c6,-2 18,-3 36,-3 42,0 66,20 66,55 0,39 -28,62 -73,62 -13,0 -22,-1 -29,-2l0 -112z"/>
    <path id="8" class="fil6" d="M2313 5863c-112,0 -185,84 -185,198 0,108 66,193 178,193 111,0 186,-76 186,-200 0,-104 -63,-191 -179,-191zm-3 68c59,0 92,58 92,126 0,73 -33,129 -91,129 -57,0 -92,-53 -92,-127 0,-73 33,-128 91,-128z"/>
    <path id="9" class="fil6" d="M2700 6247l36 -163c8,-38 15,-74 21,-116l2 0c4,43 10,78 18,116l32 163 92 0 98 -378 -87 0 -31 155c-8,45 -16,89 -22,131l-1 0c-6,-42 -12,-82 -20,-127l-31 -159 -91 0 -32 155c-9,46 -18,92 -24,133l-1 0c-7,-38 -14,-87 -23,-132l-29 -156 -91 0 90 378 94 0z"/>
    <polygon id="10" class="fil6" points="3269,6018 3129,6018 3129,5939 3277,5939 3277,5869 3043,5869 3043,6247 3285,6247 3285,6177 3129,6177 3129,6087 3269,6087 "/>
    <path id="11" class="fil6" d="M3343 6247l85 0 0 -149 26 0c35,1 51,14 61,61 11,47 20,78 27,88l87 0c-7,-14 -19,-64 -31,-106 -9,-35 -24,-61 -50,-71l0 -2c32,-12 67,-45 67,-93 0,-35 -13,-61 -35,-79 -27,-22 -66,-30 -123,-30 -45,0 -86,3 -114,8l0 373zm85 -315c6,-1 18,-3 39,-3 39,1 63,18 63,53 0,33 -25,55 -68,55l-34 0 0 -105z"/>
    <path id="12" class="fil6" d="M3790 6247l85 0 0 -135c8,1 18,2 29,2 50,0 94,-13 123,-40 22,-22 35,-53 35,-90 0,-37 -17,-69 -41,-88 -25,-20 -63,-30 -115,-30 -53,0 -90,3 -116,8l0 373zm85 -313c6,-2 18,-3 35,-3 43,0 67,20 67,55 0,39 -28,62 -74,62 -12,0 -21,-1 -28,-2l0 -112z"/>
    <path id="13" class="fil6" d="M4279 6150l29 97 93 0 -118 -378 -112 0 -116 378 89 0 27 -97 108 0zm-96 -64l23 -80c6,-22 11,-51 17,-73l1 0c6,22 12,50 19,73l24 80 -84 0z"/>
    <path id="14" class="fil6" d="M4702 6170c-17,7 -45,12 -71,12 -77,0 -122,-48 -122,-123 0,-85 53,-126 121,-126 31,0 55,7 72,14l18 -68c-16,-7 -49,-16 -94,-16 -114,0 -206,71 -206,201 0,108 67,189 198,189 46,0 81,-8 97,-16l-13 -67z"/>
    <path id="15" class="fil6" d="M4771 6247l85 0 0 -123 33 -40 92 163 100 0 -132 -217 126 -161 -105 0 -86 126c-9,13 -18,27 -26,41l-2 0 0 -167 -85 0 0 378z"/>
   </g>
  </g>
 </g>
</svg>
